<svg xmlns="http://www.w3.org/2000/svg" viewBox="0 0 24 24" width="24" height="24">
<path fill="none" d="M0 0h24v24H0z"/>
<path d="M21,5h-8.6l-2-2H3C2.4,3,2,3.4,2,4v16c0,0.6,0.4,1,1,1h18c0.6,0,1-0.4,1-1V6C22,5.4,21.6,5,21,5z M17,15.5v2
		c0,0.3-0.2,0.5-0.5,0.6c-0.2,0-0.4,0-0.6,0C11,18,7,14,7,9.1C7,9,7,8.8,7,8.5C7,8.2,7.3,8,7.6,8h2c0.1,0,0.3,0.1,0.3,0.2
		c0,0.1,0,0.2,0,0.3c0.1,0.8,0.3,1.5,0.7,2.2c0.1,0.1,0,0.2-0.1,0.3L9.2,12c0.7,1.7,2.1,3.1,3.8,3.8l0.9-1.2
		c0.1-0.1,0.2-0.1,0.3-0.1c0.7,0.3,1.5,0.6,2.2,0.7c0.1,0,0.2,0,0.3,0C16.9,15.2,17,15.3,17,15.5L17,15.5z" fill="rgba(255,248,223,1)"/>
</svg>
