<svg xmlns="http://www.w3.org/2000/svg" viewBox="0 0 24 24" width="24" height="24">
<path fill="none" d="M0,0h24v24H0V0z"/>
	<path d="M21,5h-8.6l-2-2H3C2.4,3,2,3.4,2,4v16c0,0.6,0.4,1,1,1h18c0.6,0,1-0.4,1-1V6C22,5.4,21.6,5,21,5z M15.7,14.5
		c0,0.6,0,1.2,0,1.7c0,0.1,0,0.2-0.1,0.2c-0.9,0.7-1.8,1.2-2.8,1.4c-0.9,0.2-1.8,0-2.7-0.3c-0.7-0.3-1.4-0.7-2-1.2
		c-0.1-0.1-0.1-0.2-0.1-0.2c0-0.7,0-1.5,0-2.2c0,0,0-0.1,0-0.1c0.1,0,0.2,0.1,0.2,0.1c1.2,0.7,2.3,1.4,3.5,2.1
		c0.1,0.1,0.2,0.1,0.4,0c1.1-0.7,2.3-1.3,3.5-2c0.1,0,0.1-0.1,0.3-0.1C15.7,14.2,15.7,14.3,15.7,14.5z M17.8,13.4
		c-0.3,0.1-0.4,0.1-0.4-0.3c0-0.6,0.1-1.3,0.1-1.9c-0.1,0-0.2,0.1-0.2,0.1c-1.8,1-3.5,2-5.3,3.1c-0.1,0.1-0.2,0.1-0.4,0
		c-1.9-1.1-3.7-2.2-5.6-3.3c-0.1,0-0.1-0.1-0.2-0.1c0.3-0.2,0.6-0.3,0.9-0.5c1.7-0.8,3.4-1.7,5.1-2.5C12,8,12.1,8,12.3,8.1
		C14,9,15.8,10,17.5,10.9c0.1,0,0.2,0.1,0.2,0.1C17.8,11.8,17.8,12.6,17.8,13.4z" fill="rgba(255,248,223,1)"/>
</svg>
